<svg width="158" height="130" viewBox="0 0 158 130" fill="none" xmlns="http://www.w3.org/2000/svg">
<path d="M24.7227 34.2129C35.3216 14.9908 55.5087 2 78.676 2C101.869 2 122.056 14.9908 132.629 34.2129" stroke="#016B5A" stroke-width="4" stroke-miterlimit="10" stroke-linecap="round"/>
<path d="M24.7227 95.7876C35.3216 115.01 55.5087 128.001 78.676 128.001C101.843 128.001 122.056 115.01 132.629 95.7876" stroke="#016B5A" stroke-width="4" stroke-miterlimit="10" stroke-linecap="round"/>
<path d="M51.1827 87.6279H52.8412L57.4539 96.3148L61.9371 87.6279H63.5956V101.147H61.8334V91.0868L58.335 97.7407C58.1795 98.0311 58.0499 98.2159 57.9204 98.348C57.7908 98.4536 57.6353 98.5328 57.4539 98.5328H56.9356L52.9448 91.0868V101.173H51.1567V87.6279H51.1827Z" fill="#016B5A"/>
<path d="M66.8091 100.777C66.55 100.513 66.4204 100.17 66.4204 99.7209V87.6543H75.7236V89.2649H68.2085V93.4896H75.1535V95.0738H68.2085V99.5889H75.7236V101.2H67.8457C67.4311 101.173 67.0683 101.041 66.8091 100.777Z" fill="#016B5A"/>
<path d="M78.3677 100.777C78.1086 100.513 77.979 100.17 77.979 99.7209V87.6543H83.7579C84.7167 87.6543 85.5719 87.8391 86.2975 88.2088C87.0231 88.5784 87.5932 89.1065 87.9819 89.793C88.3706 90.4795 88.5779 91.2716 88.5779 92.1694V96.262C88.5779 97.8726 88.1892 99.0872 87.3859 99.9322C86.5825 100.751 85.4164 101.173 83.8615 101.173H79.4302C78.9638 101.173 78.6269 101.041 78.3677 100.777ZM83.7838 99.5361C84.7685 99.5361 85.52 99.2721 86.0124 98.7176C86.5307 98.1631 86.7639 97.3446 86.7639 96.2356V92.2222C86.7639 91.3509 86.4789 90.6379 85.9088 90.1099C85.3386 89.5818 84.613 89.3177 83.6801 89.3177H79.7671V99.5361H83.7838Z" fill="#016B5A"/>
<path d="M91.1162 87.6279H92.9302V101.147H91.1162V87.6279Z" fill="#016B5A"/>
<path d="M103.504 97.6086H97.9838L96.6881 101.173H94.8223L99.9533 87.6543H100.757C101.301 87.6543 101.69 87.9447 101.923 88.552L106.691 101.173H104.825L103.504 97.6086ZM98.5021 96.0772H102.985L100.757 89.9778H100.731L98.5021 96.0772Z" fill="#016B5A"/>
<path d="M3.98316 66.9266V78.2027H0.5V51.8218H3.98316V62.9395V63.4395H4.48316H17.7771H18.2771V62.9395V51.8218H21.7344V78.2027H18.2771V66.9266V66.4266H17.7771H4.48316H3.98316V66.9266Z" fill="#016B5A" stroke="#016B5A"/>
<path d="M28.3325 51.8218H31.8157V78.2027H28.3325V51.8218Z" fill="#016B5A" stroke="#016B5A"/>
<path d="M70.2108 55.2565V54.7565H69.7108H61.6851V51.7959H82.2198V54.7565H74.194H73.694V55.2565V78.1769H70.2108V55.2565Z" fill="#016B5A" stroke="#016B5A"/>
<path d="M90.4939 75.2421H105.206V78.2027H89.3018C88.4643 78.2027 87.7911 77.9307 87.2709 77.4246C86.7819 76.9243 86.5107 76.2393 86.5107 75.3758V51.8218H105.206V54.7824H90.4939H89.9939V55.2824V62.7019V63.2019H90.4939H104.039V66.1889H90.4939H89.9939V66.6889V74.7421V75.2421H90.4939Z" fill="#016B5A" stroke="#016B5A"/>
<path d="M114.253 73.5452L114.253 73.5453L114.257 73.5506C115.285 74.8306 116.621 75.4802 118.301 75.4802H122.447C124.073 75.4802 125.435 74.8332 126.438 73.5787C127.372 72.4404 127.837 70.9875 127.912 69.3017H131.32C131.261 71.0627 130.889 72.6103 130.216 73.9354C129.482 75.3819 128.433 76.5014 127.111 77.3253C125.773 78.1174 124.232 78.52 122.447 78.52H118.305C116.486 78.4941 114.918 78.0888 113.58 77.2961C112.242 76.5027 111.19 75.3604 110.426 73.9045C109.666 72.4304 109.291 70.7169 109.291 68.7489V61.2501C109.291 59.2865 109.691 57.5713 110.453 56.0929C111.213 54.6193 112.286 53.5017 113.655 52.7049C115.019 51.9107 116.614 51.5054 118.482 51.5054H122.551C124.288 51.5054 125.809 51.8836 127.152 52.6296C128.465 53.373 129.487 54.4376 130.222 55.7846C130.885 57.0242 131.235 58.4395 131.293 60.0636H127.884C127.802 58.5276 127.333 57.2248 126.425 56.1933C125.417 55.0497 124.137 54.4924 122.551 54.4924H118.457C116.762 54.4924 115.344 55.1334 114.309 56.4479C113.259 57.7231 112.774 59.4035 112.774 61.3821V68.5904C112.774 70.5971 113.26 72.2731 114.253 73.5452Z" fill="#016B5A" stroke="#016B5A"/>
<path d="M139.594 66.9266V78.2027H136.11V51.8218H139.594V62.9395V63.4395H140.094H153.387H153.887V62.9395V51.8218H157.345V78.2027H153.887V66.9266V66.4266H153.387H140.094H139.594V66.9266Z" fill="#016B5A" stroke="#016B5A"/>
<path d="M50.1875 64.9993C50.1875 66.9485 48.639 68.5127 46.7485 68.5127C44.858 68.5127 43.3096 66.9485 43.3096 64.9993C43.3096 63.05 44.858 61.4858 46.7485 61.4858C48.639 61.4858 50.1875 63.05 50.1875 64.9993Z" fill="#016B5A" stroke="#016B5A"/>
</svg>
