<svg width="676" height="676" viewBox="0 0 676 676" fill="none" xmlns="http://www.w3.org/2000/svg">
<g filter="url(#filter0_f_5_8)">
<path fill-rule="evenodd" clip-rule="evenodd" d="M526 338L525.991 339.88L525.962 341.76L525.915 343.639L525.85 345.518L525.765 347.396L525.662 349.273L525.54 351.149L525.399 353.024L525.239 354.897L525.061 356.768L524.864 358.638L524.648 360.506L524.414 362.371L524.161 364.234L523.889 366.094L523.599 367.952L523.29 369.806L522.963 371.657L522.617 373.505L522.253 375.35L521.87 377.19L521.469 379.027L521.049 380.86L520.612 382.688L520.156 384.512L519.681 386.331L519.189 388.145L518.678 389.955L518.15 391.759L517.603 393.558L517.039 395.351L516.456 397.138L515.856 398.92L515.238 400.695L514.602 402.465L513.949 404.227L513.278 405.984L512.589 407.733L511.883 409.475L511.159 411.211L510.419 412.938L509.661 414.659L508.886 416.372L508.093 418.077L507.284 419.773L506.458 421.462L505.615 423.143L504.755 424.814L503.879 426.478L502.986 428.132L502.076 429.777L501.15 431.413L500.208 433.04L499.249 434.658L498.275 436.265L497.284 437.863L496.277 439.451L495.255 441.028L494.217 442.596L493.163 444.153L492.094 445.699L491.009 447.235L489.909 448.759L488.794 450.273L487.664 451.775L486.519 453.266L485.358 454.745L484.184 456.213L482.994 457.669L481.79 459.113L480.572 460.545L479.339 461.964L478.093 463.371L476.832 464.766L475.557 466.148L474.269 467.517L472.967 468.873L471.652 470.216L470.323 471.546L468.981 472.863L467.626 474.166L466.258 475.455L464.877 476.731L463.483 477.993L462.077 479.241L460.658 480.474L459.227 481.694L457.784 482.899L456.329 484.089L454.863 485.265L453.384 486.427L451.894 487.573L450.393 488.705L448.88 489.821L447.356 490.922L445.822 492.008L444.276 493.079L442.72 494.134L441.154 495.173L439.577 496.197L437.99 497.204L436.393 498.196L434.786 499.172L433.169 500.132L431.543 501.076L429.908 502.003L428.263 502.914L426.61 503.808L424.947 504.686L423.276 505.547L421.596 506.391L419.908 507.219L418.212 508.03L416.508 508.823L414.796 509.6L413.076 510.359L411.348 511.101L409.614 511.826L407.872 512.533L406.123 513.223L404.368 513.896L402.605 514.551L400.837 515.188L399.062 515.807L397.281 516.409L395.493 516.993L393.701 517.559L391.902 518.107L390.099 518.637L388.29 519.149L386.476 519.643L384.657 520.118L382.833 520.576L381.005 521.015L379.173 521.436L377.337 521.839L375.496 522.223L373.652 522.589L371.805 522.936L369.954 523.265L368.1 523.575L366.242 523.867L364.382 524.14L362.52 524.394L360.654 524.63L358.787 524.847L356.918 525.046L355.046 525.226L353.173 525.387L351.298 525.529L349.423 525.653L347.545 525.758L345.667 525.844L343.789 525.911L341.909 525.959L340.03 525.989L338.15 526L336.27 525.992L334.39 525.965L332.51 525.92L330.631 525.856L328.753 525.773L326.876 525.671L325 525.55L323.125 525.411L321.252 525.253L319.38 525.076L317.51 524.88L315.643 524.666L313.777 524.433L311.914 524.181L310.054 523.911L308.196 523.623L306.341 523.315L304.49 522.989L302.641 522.645L300.797 522.282L298.956 521.901L297.119 521.501L295.286 521.083L293.457 520.647L291.633 520.193L289.813 519.72L287.999 519.229L286.189 518.72L284.384 518.193L282.585 517.647L280.791 517.084L279.003 516.503L277.221 515.904L275.445 515.288L273.676 514.653L271.912 514.001L270.156 513.332L268.406 512.644L266.663 511.94L264.927 511.218L263.199 510.478L261.478 509.722L259.764 508.948L258.059 508.157L256.361 507.349L254.672 506.524L252.991 505.683L251.318 504.824L249.654 503.949L247.999 503.057L246.353 502.149L244.716 501.224L243.089 500.283L241.471 499.326L239.862 498.353L238.264 497.363L236.675 496.358L235.097 495.337L233.528 494.3L231.971 493.248L230.423 492.18L228.887 491.096L227.362 489.997L225.847 488.883L224.344 487.754L222.852 486.61L221.372 485.451L219.903 484.278L218.446 483.09L217.001 481.887L215.569 480.67L214.148 479.438L212.74 478.193L211.344 476.933L209.961 475.659L208.591 474.372L207.234 473.071L205.89 471.757L204.559 470.429L203.241 469.088L201.937 467.734L200.647 466.367L199.37 464.987L198.107 463.594L196.858 462.189L195.623 460.772L194.403 459.342L193.196 457.9L192.005 456.446L190.827 454.98L189.665 453.502L188.517 452.013L187.385 450.513L186.267 449.001L185.165 447.478L184.078 445.944L183.006 444.4L181.95 442.844L180.909 441.279L179.884 439.703L178.875 438.116L177.882 436.52L176.905 434.914L175.944 433.298L174.999 431.673L174.07 430.038L173.158 428.395L172.262 426.742L171.383 425.08L170.521 423.409L169.675 421.73L168.846 420.043L168.034 418.347L167.239 416.644L166.461 414.932L165.701 413.213L164.957 411.486L164.231 409.752L163.522 408.011L162.831 406.263L162.157 404.508L161.501 402.746L160.862 400.978L160.241 399.203L159.638 397.423L159.053 395.636L158.485 393.844L157.936 392.046L157.404 390.242L156.891 388.434L156.396 386.62L155.919 384.802L155.46 382.979L155.019 381.151L154.597 379.319L154.193 377.483L153.807 375.643L153.44 373.799L153.091 371.952L152.761 370.101L152.449 368.247L152.156 366.39L151.881 364.53L151.625 362.668L151.388 360.803L151.169 358.936L150.969 357.066L150.788 355.195L150.625 353.322L150.481 351.448L150.356 349.572L150.25 347.695L150.162 345.817L150.094 343.938L150.044 342.059L150.012 340.179L150 338.299L150.006 336.419L150.032 334.539L150.076 332.66L150.138 330.781L150.22 328.903L150.32 327.025L150.439 325.149L150.577 323.274L150.734 321.401L150.909 319.529L151.103 317.659L151.316 315.791L151.548 313.925L151.798 312.062L152.066 310.201L152.354 308.344L152.659 306.489L152.984 304.637L153.327 302.788L153.688 300.943L154.068 299.102L154.466 297.265L154.882 295.432L155.317 293.602L155.77 291.778L156.242 289.958L156.731 288.143L157.239 286.333L157.765 284.528L158.308 282.728L158.87 280.934L159.45 279.145L160.047 277.363L160.662 275.586L161.295 273.816L161.946 272.052L162.614 270.295L163.3 268.545L164.003 266.801L164.724 265.065L165.462 263.336L166.217 261.614L166.99 259.9L167.779 258.194L168.586 256.496L169.409 254.806L170.25 253.124L171.107 251.451L171.98 249.786L172.871 248.13L173.778 246.484L174.701 244.846L175.641 243.218L176.597 241.599L177.569 239.99L178.557 238.39L179.561 236.801L180.581 235.222L181.617 233.653L182.668 232.094L183.735 230.546L184.817 229.009L185.914 227.482L187.027 225.967L188.155 224.463L189.298 222.97L190.456 221.489L191.628 220.019L192.815 218.562L194.017 217.116L195.233 215.682L196.463 214.261L197.708 212.851L198.966 211.455L200.238 210.071L201.525 208.7L202.824 207.341L204.138 205.996L205.464 204.664L206.804 203.345L208.157 202.04L209.523 200.749L210.902 199.471L212.294 198.207L213.698 196.957L215.115 195.721L216.544 194.499L217.985 193.292L219.438 192.099L220.903 190.92L222.379 189.757L223.868 188.608L225.367 187.474L226.878 186.355L228.4 185.252L229.933 184.163L231.477 183.09L233.031 182.033L234.596 180.991L236.171 179.965L237.757 178.955L239.352 177.96L240.957 176.982L242.572 176.019L244.197 175.073L245.831 174.143L247.474 173.23L249.126 172.333L250.787 171.452L252.457 170.589L254.135 169.741L255.822 168.911L257.517 168.098L259.22 167.302L260.931 166.522L262.65 165.76L264.376 165.015L266.109 164.288L267.85 163.578L269.598 162.885L271.352 162.21L273.113 161.552L274.881 160.912L276.655 160.29L278.435 159.685L280.221 159.098L282.013 158.529L283.811 157.979L285.614 157.446L287.422 156.931L289.235 156.434L291.053 155.956L292.876 155.495L294.703 155.053L296.535 154.629L298.37 154.224L300.21 153.837L302.053 153.468L303.901 153.118L305.751 152.786L307.605 152.473L309.461 152.178L311.321 151.902L313.183 151.645L315.048 151.406L316.915 151.186L318.784 150.984L320.655 150.801L322.528 150.637L324.403 150.492L326.278 150.365L328.155 150.257L330.033 150.168L331.912 150.098L333.791 150.047L335.671 150.014L337.551 150L339.431 150.005L341.311 150.029L343.19 150.071L345.069 150.132L346.947 150.213L348.825 150.311L350.701 150.429L352.576 150.565L354.45 150.721L356.322 150.894L358.192 151.087L360.06 151.298L361.926 151.528L363.789 151.777L365.65 152.044L367.508 152.33L369.363 152.634L371.215 152.957L373.064 153.298L374.909 153.658L376.751 154.037L378.589 154.433L380.422 154.848L382.252 155.282L384.077 155.733L385.897 156.203L387.712 156.691L389.523 157.197L391.328 157.722L393.128 158.264L394.923 158.824L396.712 159.402L398.495 159.998L400.272 160.612L402.043 161.244L403.807 161.893L405.565 162.56L407.316 163.244L409.06 163.946L410.797 164.666L412.526 165.402L414.249 166.156L415.963 166.927L417.67 167.715L419.369 168.521L421.06 169.343L422.742 170.182L424.416 171.038L426.081 171.91L427.738 172.799L429.385 173.705L431.023 174.627L432.652 175.565L434.272 176.52L435.882 177.491L437.482 178.477L439.072 179.48L440.652 180.499L442.222 181.533L443.782 182.583L445.331 183.649L446.869 184.73L448.396 185.826L449.912 186.938L451.417 188.064L452.911 189.206L454.393 190.363L455.863 191.534L457.322 192.72L458.769 193.92L460.204 195.135L461.626 196.364L463.036 197.608L464.434 198.865L465.819 200.136L467.191 201.421L468.551 202.72L469.897 204.032L471.23 205.358L472.55 206.697L473.856 208.049L475.149 209.414L476.428 210.792L477.693 212.182L478.944 213.586L480.181 215.001L481.404 216.429L482.612 217.869L483.806 219.321L484.986 220.785L486.151 222.261L487.301 223.748L488.436 225.247L489.556 226.757L490.66 228.278L491.75 229.81L492.824 231.353L493.883 232.907L494.926 234.471L495.953 236.045L496.965 237.63L497.961 239.224L498.94 240.829L499.904 242.443L500.852 244.067L501.783 245.7L502.698 247.343L503.596 248.994L504.478 250.654L505.343 252.324L506.191 254.001L507.023 255.687L507.837 257.382L508.635 259.084L509.416 260.794L510.179 262.512L510.925 264.238L511.654 265.971L512.366 267.711L513.06 269.458L513.737 271.212L514.396 272.973L515.037 274.74L515.661 276.513L516.267 278.293L516.855 280.079L517.425 281.87L517.978 283.667L518.512 285.47L519.028 287.277L519.526 289.09L520.006 290.908L520.468 292.73L520.912 294.557L521.337 296.388L521.744 298.224L522.133 300.063L522.503 301.906L522.854 303.753L523.188 305.603L523.502 307.457L523.799 309.313L524.076 311.173L524.335 313.035L524.575 314.899L524.797 316.766L525 318.635L525.184 320.506L525.35 322.379L525.497 324.253L525.625 326.129L525.734 328.006L525.825 329.883L525.896 331.762L525.949 333.641L525.984 335.521L525.999 337.401L526 338Z" fill="url(#paint0_radial_5_8)" fill-opacity="0.6"/>
</g>
<defs>
<filter id="filter0_f_5_8" x="0" y="0" width="676" height="676" filterUnits="userSpaceOnUse" color-interpolation-filters="sRGB">
<feFlood flood-opacity="0" result="BackgroundImageFix"/>
<feBlend mode="normal" in="SourceGraphic" in2="BackgroundImageFix" result="shape"/>
<feGaussianBlur stdDeviation="75" result="effect1_foregroundBlur_5_8"/>
</filter>
<radialGradient id="paint0_radial_5_8" cx="0" cy="0" r="1" gradientUnits="userSpaceOnUse" gradientTransform="translate(338 338) rotate(90) scale(188)">
<stop stop-color="#016B5A"/>
<stop offset="0.98" stop-color="#57D2BE"/>
</radialGradient>
</defs>
</svg>
