<svg width="104" height="17" viewBox="0 0 104 17" fill="none" xmlns="http://www.w3.org/2000/svg">
<path d="M8.4588 0.508179L10.2509 6.03604H16.0503L11.3585 9.45245L13.1506 14.9803L8.4588 11.5639L3.76696 14.9803L5.55908 9.45245L0.867241 6.03604H6.66667L8.4588 0.508179Z" fill="#282828"/>
<path d="M30.118 0.508179L31.9101 6.03604H37.7095L33.0177 9.45245L34.8098 14.9803L30.118 11.5639L25.4261 14.9803L27.2183 9.45245L22.5264 6.03604H28.3259L30.118 0.508179Z" fill="#282828"/>
<path d="M51.7772 0.508179L53.5693 6.03604H59.3687L54.6769 9.45245L56.469 14.9803L51.7772 11.5639L47.0853 14.9803L48.8774 9.45245L44.1856 6.03604H49.985L51.7772 0.508179Z" fill="#282828"/>
<path d="M73.4358 0.508179L75.228 6.03604H81.0274L76.3356 9.45245L78.1277 14.9803L73.4358 11.5639L68.744 14.9803L70.5361 9.45245L65.8443 6.03604H71.6437L73.4358 0.508179Z" fill="#282828"/>
<path d="M95.096 0.508179L96.8881 6.03604H102.688L97.9957 9.45245L99.7878 14.9803L95.096 11.5639L90.4042 14.9803L92.1963 9.45245L87.5044 6.03604H93.3039L95.096 0.508179Z" fill="#282828"/>
</svg>
