<svg width="38" height="38" viewBox="0 0 38 38" fill="none" xmlns="http://www.w3.org/2000/svg">
  <path d="M19 0C15.2423 0 11.5687 1.11432 8.44417 3.20207C5.31964 5.28981 2.88437 8.2572 1.4463 11.729C0.00824013 15.2007 -0.368032 19.0211 0.365083 22.7066C1.0982 26.3924 2.90778 29.7777 5.56498 32.4351C8.22218 35.0923 11.6076 36.9018 15.2933 37.6349C18.9789 38.3681 22.7993 37.9917 26.2711 36.5536C29.7428 35.1155 32.7102 32.6804 34.798 29.5559C36.8857 26.4313 38 22.7579 38 19C38 13.9609 35.9981 9.12816 32.4351 5.56498C28.8719 2.00177 24.039 0 19 0ZM28.3338 13.015L25.2225 27.7162C24.985 28.7612 24.3675 28.9987 23.4888 28.5237L18.7388 25.0087L16.3638 27.2175C16.2519 27.3635 16.1082 27.4823 15.9436 27.5647C15.779 27.6469 15.5978 27.6906 15.4137 27.6925L15.7463 22.9425L24.5338 14.9862C24.9375 14.6537 24.5338 14.4637 23.9638 14.7962L13.1813 21.565L8.43125 20.0925C7.41 19.7837 7.38625 19.0712 8.645 18.5962L26.9563 11.4712C27.8588 11.21 28.6188 11.7325 28.3338 13.015Z" fill="#016B5A" />
</svg>