<svg width="529" height="339" viewBox="0 0 529 339" fill="none" xmlns="http://www.w3.org/2000/svg">
  <path fill-rule="evenodd" clip-rule="evenodd" d="M146.944 0.284912L161.247 100.147C197.089 66.0685 258.669 43.5823 328.621 43.5823C439.287 43.5823 529 99.8613 529 169.285C529 238.708 439.287 294.987 328.621 294.987C258.669 294.987 197.089 272.501 161.247 238.423L146.944 338.285L126.163 193.185L0 169.285L126.163 145.385L146.944 0.284912ZM163.188 224.87L163.438 223.123C185.604 237.223 216.411 245.963 250.473 245.963C317.98 245.963 372.705 211.633 372.705 169.285C372.705 126.937 317.98 92.6064 250.473 92.6064C216.411 92.6064 185.604 101.347 163.438 115.447L163.188 113.7C167.755 109.834 172.814 106.15 178.34 102.683C206.785 84.8385 246.447 73.6114 290.549 73.6114C334.651 73.6114 374.313 84.8385 402.759 102.683C431.406 120.654 447.513 144.472 447.513 169.285C447.513 194.098 431.406 217.915 402.759 235.887C374.313 253.731 334.651 264.958 290.549 264.958C246.447 264.958 206.785 253.731 178.34 235.887C172.814 232.42 167.755 228.736 163.188 224.87ZM166.602 218.11C165.843 217.634 165.097 217.153 164.363 216.667L164.966 212.456C178.143 218.005 194.002 221.242 211.066 221.242C256.808 221.242 293.889 197.98 293.889 169.285C293.889 140.59 256.808 117.328 211.066 117.328C194.002 117.328 178.143 120.565 164.966 126.114L164.363 121.903C165.097 121.417 165.843 120.936 166.602 120.46C187.795 107.165 217.438 98.7519 250.473 98.7519C283.509 98.7519 313.152 107.165 334.345 120.46C355.74 133.882 367.361 151.414 367.361 169.285C367.361 187.156 355.74 204.688 334.345 218.11C313.152 231.405 283.509 239.818 250.473 239.818C217.438 239.818 187.795 231.405 166.602 218.11ZM288.525 168.269C288.097 157.547 280.899 146.615 267.072 137.941C253.01 129.12 233.219 123.473 211.066 123.473C194.106 123.473 178.531 126.783 165.85 132.292L167.726 145.385L288.525 168.269ZM288.525 170.301C288.097 181.023 280.899 191.955 267.072 200.629C253.01 209.45 233.219 215.097 211.066 215.097C194.106 215.097 178.531 211.787 165.85 206.278L167.726 193.185L288.525 170.301ZM163.852 105.639C171.194 98.5444 179.775 91.8895 189.491 85.7948C224.826 63.6282 274.006 49.7278 328.621 49.7278C383.236 49.7278 432.417 63.6282 467.752 85.7948C503.289 108.088 523.657 137.876 523.657 169.285C523.657 200.693 503.289 230.481 467.752 252.775C432.417 274.941 383.236 288.842 328.621 288.842C274.006 288.842 224.826 274.941 189.491 252.775C179.776 246.68 171.195 240.026 163.853 232.931C193.599 256.203 239.3 271.104 290.549 271.104C380.189 271.104 452.856 225.518 452.856 169.285C452.856 113.052 380.189 67.4659 290.549 67.4659C239.299 67.4659 193.597 82.367 163.852 105.639Z" fill="white" />
</svg>